<?xml version="1.0" encoding="UTF-8"?><svg id="b" xmlns="http://www.w3.org/2000/svg" width="632.96" height="282.15" viewBox="0 0 632.96 282.15"><g id="c"><path d="M174.25,87.34c1.4,1.39,8.48,21.83,10.41,26.09,5.82,12.84,13.33,24.91,19.38,37.65,2.41,2.07,10.19-1.62,13.98-2.02,3.13-.33-1.18,2.64,1.98,2.01,2.54-.5,4.8-2.22,7.51-1.99l-11.99,8.49,10.99-1.01c-3.49,5.14-10.15,4.63-13.99,9.01l9.99-1.5c.3,1.57-1.8.96-2.55,2-.59.83.4,2.31,0,3.03-.62,1.11-4.09,1.93-4.22,3.45,4.77,10.34,15.01,23.48,15.81,35.03.28,3.97-1.61,7.42-.05,11.48l-5.94-7.28-3.04-1.72c-1.87,2.41,6.7,14.34,2.49,17.98l-8.49-10.98c-1.97,3.51,4.52,15.36,3.99,15.99-1.5,1.77-2.21-1.44-2.6-1.87-9.62-10.82-16.99-31.89-25.56-44.46-.56-.82-1.29-2.23-2.31-2.34-11.68,4.57-24.41,7.64-35.79,12.92-1.68.78-3.98,1.38-5.2,2.8-2.98,3.45-6.93,27.82-9.25,34.75-1.27,3.79-3.29,7.33-4.3,11.21-3.9.86-.84-4.33-2.48-5.99l-4.52,9.99.03-6.48-2.52-.54-4.99,10.02c-2.55-1.03.58-9.75-.52-12l-3.98,5.99c.5-4.59,1.34-12.23-5.24-11.73-5.66.43-2.68,2.65-4.77,5.23-4.02,4.99-30.4,10.75-38.27,13.74-11.08,4.22-20.79,9.64-30.19,16.81-2.31,1.76-11.25,10.49-12.26,10.79-4.33,1.28-7.25-2.84-10.34-4.29-1.97-.93-6.63-1.3-8.41-3.59-1.29-1.66.86-3.68-4.41-3.06-.76-3.32-1.71-6.9-1.07-10.35.57-3.07,3.63-4.68,4.41-6.58,1.66-4.07-1.74-15.41-2.33-20.59C-.66,195.59,2.33,158.49,0,120.53c1.06-5.41,7.32-5.55,9.02-11.45,1.77,3.23,4.6.72,6.47,1.46,1.06.42,2.07,2.51,4,3.08,1.4.42,2.87-.6,4.73.16,5.26,2.15,6.66,7.8,7.29,12.8,2.93,23.01.45,47.98-.95,71l1.97,40.48c21.07-10.73,44.06-17.68,67.47-21.01l-4.48,4,12.99-1.98c-2.22,4.01-8.1,2.8-11.99,4l8,1,1.99,2-4.99,3.98,7.99.02-5.99,4c.7,2.38,8.4.33,9.02-.71.24-9.1,6.59-23.05,4.69-31.53-.92-4.09-5.03-6.02-5.58-7.43-1.52-3.88,1.81-3.37,2.36-4.28.5-.82-.93-2.27.41-4.59,2.02-3.5,7.57-4.25,9.65-6.42,2.71-2.82,2.5-10.58,3.55-14.45,5.49-20.21,11.28-40.78,15.64-61.36,1.36-6.44-.95-16.52,8.35-17.75l-.1-2.48,3.99,1.99,1.51-4.98c3.86,3.55,13.26,3.32,17.23,7.25ZM176.49,161.03c1.11-1.54-9-20.84-10.78-23.65-.56-.88-.94-2.22-2.18-2.31l-7,31.99,19.97-6.04Z"/><path d="M521.29,90.32c.26.15.2,1.69.86,1.79,2.43.38,5.92-2.67,8.37-1.56l-12.99,8.49,12-1.49c-3.62,3.62-8.59,4.91-12.99,7.06-1.44.7-2.51-.22-2,2.44l9.99-1.99c.02,1.53-2.48,1.56-2.87,2.19-.52.84,2.03,3.96-4.16,5.34,5.96,14.72,19.49,28.42,15.02,45.46l-5-8.99-1,2.99-1.98-1.99c-1.21,6.89,6.09,11.44,2.98,17.99l-8.98-11c.15,6.29,1.36,11.21,3.98,17-1.92-1-3.59-2.92-4.83-4.66-7.83-11.04-15.11-27.51-22.36-39.63-.86-1.44-1.77-2.87-2.76-4.23l-41.82,14.74c-3.38,8.57-4.18,18.01-6.71,26.79-1.86,6.44-4.35,15.07-8.5,19.99l-.51-6.99-5.49,9.99.82-5.39-2.82-1.6c.28,1.45-4.13,12.08-6.01,10,.26-1.41,2.74-13.99,0-11.99l-3,5.99c-.3-2.57.55-5.9-.19-8.31-.7-2.27-3.61-2.24-3.87-3.38-1.25-5.49,5.42-22.06,5.13-29.81s-3.6-6.35-5.6-9.48c-.93-1.46,1.74-9.4,2.81-10.74,2.55-3.2,9.08-2.55,11.06-8.43,6.55-19.45,11.68-48.1,16.18-68.82.84-3.87,2.24-17.97,3.71-19.78,1.66-2.03,7.14.62,5.78-4.24l3.98,1.01,1.5-3.98,16.46,6.52c7.99,22.29,20.06,42.58,29.99,64,3.03,4.05,13.17-2.81,15.81-1.29ZM439.51,100.06l4-24.99-3,11.99-1.98-1.99c1.69,4.46.33,7.45,0,11.51-.09,1.09-.72,3.73.98,3.47ZM478.53,102.06c.87-1.18-10.25-23.75-12.99-25.99l-8.01,31.99,21-6Z"/><path d="M604.74,35.79c-.24-.14-.19-1.73-.78-1.76-6.42,3.49-5.94-2.05-11.37-2.03l-.08-5.94c-7.81-2.01-40.03,18.19-38.84,24.36.25,1.31,3.8,4.06,5.14,4.85,15.72,9.21,36.48,11.78,53.01,22.99,12.55,8.51,24.73,25.01,20.14,40.76-6.69,22.93-52.26,48.29-75.02,40.12-6.35-2.28-5.81-6.38-8.41-10.57-.28-.46-7.19-6.89-2.54-5.49,2.91.88,6.61,4.59,10.51,3.98-1.98-2.62-6.29-3.53-8.06-6.47-.77-1.27-.11-2.32-.43-3.52-.16-.6-3.19-5.4-.02-4,1.07.47,6.79,6.4,8.51,4.98-3.66-3.63-4.99-6.82-4.99-11.98,1.75.36,1.54,3.01,2.96,4.53,11.9,12.75,48.92-9.47,54.93-22.89-20.35-21.93-86-20.08-81.78-61.04,2.55-24.79,52.46-55.38,75.14-44.36,8.35,4.06,16.12,18.69,13.29,27.81-.98,3.16-9.45,6.76-11.33,5.67Z"/><path d="M315.52,121.06c9.05.83,23.77,7.52,27.22,16.29,1.94,4.92,1.23,9.36,1.83,14.17.37,3.02,2.72,5.34.96,9.56.9-.26,2.3-2.14,1.99.47-2.99,25.23-62.79,69-87.25,65.26-.88-.13-3.01-.43-2.74-1.74,2.99,0,8.02-.35,9.99-3-8.28,2.06-16.51,3.02-24.99.98l13.09-1.44c3.05-2.6,4.37-1.3,6.91-1.93,4.72-1.18,9.42-2.49,14.01-4.11,2.07-2.08.58-1.71-1.13-1.14-10.61,3.55-22.38,6.07-33.08,1.33-1.09-.48-3.75-1.37-3.79-2.7l10.51,1.06,9.48-2.06-8.04-.46-9.95-4.54c14.66,3.45,31.17-5.52,43.31-13.2,15.48-9.79,31.48-23.1,40.36-39.32-5.35-10.1-23.92-9.42-33.7-7.03-7.53,1.84-12.08,7.44-19.87,6.63-1.2,12.55.9,25.61,3.89,37.9-5.93-4.56-2.45,2.14-3.49,5-2.65-1.42-2.03-7.4-5.5-6.99l.99,8.99-2.51-.98-.49,2.99c-1.99-1.44-4.53-3.59-6.04-5.49-.99-1.24-.84-3.38-.97-3.51-3.2-3.49-.78,3.85-.99,3.99-2.11.14-4.21-1.48-5.46-3.03-5.02-6.15-6.02-24.23-6.58-32.42-.44-6.55-.36-47.56-1.97-49.54-3.77,1.2-8.81,8.7-12.75,4.76-2.27-2.28,1.06-4.77-5.24-2.75l-.05-2.91-3.96-.08c1.71-3.87-1.97-5.33-2.02-5.66-.53-3.98,1.69-10.54,4.17-13.71,2.2-2.82,19.64-14.45,23.53-16.47,17.94-9.29,56.38-18.56,70.76-.11,8,10.27,8.05,21.87,5.35,34.21-.56,2.54-6.9,11.57-5.78,12.71ZM269.52,104.57c.65,5.8-.47,12.58,0,18.5,6-2.48,13.4-8.77,18.05-13.45,2.85-2.87,12.87-14.57,12.98-18.01-11.25-5.4-24.03-1.74-35.03,2.48,2.25,2.73,3.61,6.98,4,10.49Z"/><path d="M396.51,192.07l-3.49.87-3.49-4.86-.02,3.99-2.98-1.99-1.02,8.99-1.98-1.99-1,2.99-3.02-11.99c-2.87.56.65,6.19,0,6.99-1.95,0-4.86-3.66-5.17-3.78-.7-.27-2.28,1.13-2.81.79-2.44-1.57-9.78-50.38-10.5-57.01-1.85-17.14-1.96-35.17-2.52-52.49-.32-9.75-2.55-21.16-.93-30.95.93-5.59,6.59-3.46,5.95-9.56,2.21,1.09,5.63-.15,7.24.23.57.13,9.81,3.89,10.71,4.32,8.76,4.17,7.58,18.51,7.48,26.96-.24,20.26-2.19,37.62.25,58.32,2.36,20.04,8.67,39.8,7.3,60.18Z"/></g></svg>