<?xml version="1.0" encoding="UTF-8"?><svg id="b" xmlns="http://www.w3.org/2000/svg" width="211.56mm" height="100.09mm" viewBox="0 0 599.7 283.73"><g id="c"><path d="M363.66,88.76c-.12.21-1.72.1-1.76.73,3.94,3.86-7.58,17.6-6.96,18.41,6.3,1.92,16.05,4.33,21.35,8.14,1.68,1.21,1.92,2.59,2.97,3.53.7.63,2.14.47,3.54,1.93,4.99,5.23,5.91,18.59,4.12,25.37l1.98-1.99.02,7.99c4.48-2.96.41,6.06-.16,7.34-8.97,20.13-30.36,37.82-48.88,49.02-13.6,8.22-30.81,16.63-46.87,16.07l6.47-2.5c1.58-.88-.77-1.42-1.36-1.44-7.56-.28-15.12,2.55-23.09.43l3.48-.99,8.88-.14.63-2.85,24.97-5.01c.25-1.77-2.24-.98-3.25-.76-12.69,2.75-20.86,6.37-34.39,1.96l-7.3-4.18c8.09,1.87,15.86,1.4,23.97-.02l-15.98-3.49-3-2.48c4.54.13,7.38,1.39,12.04.54,22.46-4.14,60.2-30.7,73.86-49.02,7.22-9.69,9.05-13.19-4.43-17.51-8.76-2.8-19.94-2.04-28.72.34-7.15,1.94-12.61,7-20.57,6.92-1.99,14.12,1.81,28.67,3.78,42.74l-3.98-4.99.49,8.98-4.99-7.98c-3.07,1.22,1.32,9.6.48,11.98l-3.98-3-.02,4c-3.48-2.91-7.84-4.84-7.99-9.98l-2.48,4.98c-.77-3.22-3.35-2.25-3.97-2.93-7.01-7.71-8.1-40.11-8.55-51.46-.53-13.48,1.13-27.16-.98-40.5-1.32-1.41-9.36,9.3-13.74,4.75-.99-1.02-1.09-3.34-1.25-4.75l-4.46,2c-1.52-.56-.71-2.71-1.06-3.06-1.01-1.03-2.94-.66-3.32-1.08-.55-.62.14-2.96-.28-4.22-.51-1.54-2.75-1.35-2.75-2.07,0-.8.88-6.84,1.13-7.81.16-.6,4.2-7.47,4.71-8,2.84-2.99,21.71-14.92,26.13-17.1,19.44-9.62,60.55-19.86,76.79-1.09,3.73,4.31,8.21,12.36,8.91,18.07.22,1.79.23,15.49-.16,16.2ZM303.99,85.44c1.25,6.93-.92,17.15,0,24.48,5.2-1.22,11.37-6.35,15.51-9.96,3.84-3.35,20.25-20.18,19.51-24.41-12.09-5.41-26.25-2.15-37.98,2.46-1.09,1.52,2.65,5.74,2.95,7.44Z"/><path d="M231.23,141.76c1.81,1.06,13.5-4.02,16.25-3.9.65.03.13,2.06,2.03,2.15,2.43.11,4.99-1.47,7.53-1.11-3.05,4-8.45,5.44-12.98,7-.08,1.81-.51,2.09,1.48,1.98,3.24-.17,6.7-1.74,9.99-2.02l.51,1.99-15.96,8.51c-.25,2.87,7.94-1.33,8.97-.49l-.5,5.04-4.38,2.06c-.47.66-.14,2.27.08,3.15,1.31,5.15,10.3,17.17,12.97,24.03,2.67,6.88,3.94,14.04,3.86,21.19-.02,1.53-.25,2.53-1.54,3.45l-3.5-6.98-1.97,2.98-3-3.99c-1.08,4.44,3.28,9.52,3.83,12.74.31,1.83-.73,3.35-.57,4.63.2,1.66,2.14,2.7,1.72,4.61-4.84-4.26-8.4-10.13-10.99-15.98-1.85-.21-.87,2.25-.82,3.41.06,1.59.35,4.63.69,6.14.95,4.14,2.57,6.7,4.13,10.43l-4.96-4.52-28.51-50.46-1.76-.78-45.65,16.33c-6.08,16.98-7.07,35.43-16.02,51.42-3.07-1.22-2.13-4.61-.99-6.98h-1.98s-4.03,10.97-4.03,10.97c-2.16.45.37-11.24-2.97-7.98-1.21,4.07-3.14,8.81-7,10.99l.98-12.99-4.97,6.99c.91-6.62,1.74-10.67-4.72-14.43,1.4-9.72,6.06-21.58,6.7-31.1.11-1.57-1.96-9.59-2.46-10.38-1.47-2.32-5.35-.57-4.54-4.47.43-2.06,2.11-2.63,2.47-3.63.47-1.28-.16-2.53.3-3.63,2.03-4.86,8.01-5.14,11.21-7.8s3.94-13.2,5.11-17.7c5.21-20.08,11.55-42.53,16.4-63.69,1.61-7,1.43-13.94,4.38-20.6l6.67-2.36-.57-4.03,3.98,2.99,1.54-5.02c5.72,3.27,15.41,3.32,20.01,8.95,2.76,3.38,6,16.47,8.25,21.72,7.51,17.49,17.14,34,25.32,51.14ZM200.09,150.87c-4.63-9.67-8.56-20.47-14.97-28.96l-9,35.96,23.97-7Z"/><path d="M585.73,77.96l-1.01,1.98,9.99-.5-13.98,8.49,13.98-1.49-16.97,9.98c1.07,3.07,7.9-1.91,9.97-1.48l-2.99,3.5c1.35.98,2.54-.11,1.99,2.48l-5.98,2.5c7.35,13.57,15.56,26.75,18.93,42.04l-1.99.93,2.02,3-1.98.48,1,5.49-2,.51-2.02-5.99-1.97,2.98c-.35-1.1-2.86-9.64-5.01-7.97-.86.67,6.64,17.54,4.99,20.97l-10.97-13.98c.18,4.81.78,9.61,2.24,14.23.21.67,4.99,8.83.73,5.27-3.65-3.05-17.24-28-20.81-34.14-2.01-3.47-8.88-19.37-11.85-20.19l-46.24,16.35c-4.01,9.66-4.81,20.32-7.71,30.25-.74,2.52-6.53,19.44-7.29,20.19-3.4,3.4-1.33-8.61-2.97-7.98l-5.02,11.97-.86-6.56-2.11-1.42-5.02,11.98c-3.92-2.26.24-9.9,0-13.98l-5.99,5.98c.88-3.65,2.14-7.72-.55-10.93-.84-1-2.96-1.4-3.34-2.7-1-3.39,5.52-23.99,5.95-29.83.04-.57-.18-5.38-.29-5.99s-1.36-.3-1.68-1.14c-.15-.4.67-1.59.35-2.38-1.12-2.76-6.63-2.79-5.5-7.33.24-.96,2.16-.95,2.6-1.63.7-1.1-.45-2.42-.25-3.37.83-4.01,9.07-5.98,11.68-8.15,3.4-2.83,3.85-13.24,5.09-17.71,5.77-20.93,12.76-44.59,17.42-66.67.97-4.6.22-8.36.71-11.24.26-1.53,2.8-5.23,3.01-7.52l5.75-.22v-4s3.99,1.99,3.99,1.99l1.54-5.02c5.49,3.16,13.47,2.94,18.51,7.46,3.27,2.93,7.7,18.57,10.07,23.9,7.49,16.84,16.74,32.85,24.35,49.63l1.76.78,15.71-3.81ZM493.8,86.93l4-25.97c-1.61.26-1.69,3.93-2.08,5.39-1.09,4.11-2.37,9.01-2.77,13.21-.15,1.6-1.08,6.69.86,7.36ZM536.73,90.89c.41-1.69-.22-3.12-.74-4.68-1.55-4.63-8.28-17.61-11.01-21.95-.55-.88-.95-2.22-2.18-2.3l-9,34.96,22.93-6.03Z"/><path d="M36.26,233.79c17.12-8.28,35.12-13.62,53.54-17.93,1.89-.44,3.44-.92,4.76-1.21,1.9-.43,17.84-4.73,17.6-1.33l-2.97,2.49,12.97-1.99c.41,2.38-.23,1.91-1.97,2.46-3.33,1.07-7.53,1.65-11,2.54l7.99,1-1.01,1.98,4,.02-6.99,4.97,10.98.02-7.99,5.49,7.98-.49c.13,1.6-2.17,1.25-3.12,2.43-.9,1.11.51,2.71-.82,4.03-6.18,6.15-27.99,9.75-37.23,12.8-12.03,3.97-25.69,9.61-36.07,16.88-5,3.5-17.75,17.18-22.94,15.66-1.18-.34-1.84-1.91-2.79-2.33-1.62-.72-6.81-2.05-8.16-2.75-3-1.53-8.15-4.26-6.75-7.78H1.29s.9-2.54.9-2.54l-1.89-1.04c1.32-2.62-.36-5.04.15-7.66.65-3.33,4.41-4.75,5.32-6.75,1.94-4.24-2.83-25.14-3.46-31.47-2.71-27.1-.86-52-.96-78.96-.03-7.61-2.9-42.86-.15-46.02,1.61-1.85,8.6-3.54,8.1-8.38l4.48,1.65c3.67-4.71,6.98,4.17,8.97,4.1.73-.03,1.36-1.95,3.53-1.39,3.42.88,8.09,5.68,8.74,9.36,5.56,31.7-.7,69.94.22,102.67.28,9.84.54,19.64,1.02,29.46Z"/><path d="M413.59,22.39c.59.49-.26,2,1.28,1.61l1.52-2.98c2.05,2.18,5.78,4.22,8.47,5.35,1.12.47,2.38-.76,4.54.53,5.65,3.38,7.91,9.39,8.45,15.59,1.89,21.47-2.48,44.54-.97,66.91,1.67,24.94,9.21,49.16,8.07,74.05-.06,1.31,1.18,4.12.92,4.38-.22.2-3.86-.31-4.5,2.98l-3.49-5.97v8.98c-.25-2.73-1.54-5.62-4-6.98l-1.02,8.99-1.5-.96.51,2.94c-2.86.55-1.61-.77-2.26-2.18-1.6-3.44-2.78-7.13-3.74-10.79-3.02.74.96,5.54-.48,6.98-2.31-.57-5.48-4.84-6.5-3.98l-.99,1.98c.14-2.39-1.66-4.11-2.3-6.2-9.24-30.22-11.98-81.22-12.74-113.14-.19-7.93-1.48-33.53.58-39.46,1.28-3.69,4.71-3.69,4.94-3.96,1.32-1.58,1.09-4.06,2.48-5.63.71-.61,2.15.46,2.73.94Z"/></g></svg>